<?xml version="1.0" encoding="UTF-8" standalone="no"?>
<!-- Created with Inkscape (http://www.inkscape.org/) -->
<svg
   xmlns:dc="http://purl.org/dc/elements/1.1/"
   xmlns:cc="http://web.resource.org/cc/"
   xmlns:rdf="http://www.w3.org/1999/02/22-rdf-syntax-ns#"
   xmlns:svg="http://www.w3.org/2000/svg"
   xmlns="http://www.w3.org/2000/svg"
   xmlns:sodipodi="http://inkscape.sourceforge.net/DTD/sodipodi-0.dtd"
   xmlns:inkscape="http://www.inkscape.org/namespaces/inkscape"
   width="200pt"
   height="200pt"
   id="svg2"
   sodipodi:version="0.32"
   inkscape:version="0.43"
   version="1.0"
   sodipodi:docbase="/tmp"
   sodipodi:docname="184_-_shi2_-_eat.svg">
  <defs
     id="defs4" />
  <sodipodi:namedview
     id="base"
     pagecolor="#ffffff"
     bordercolor="#666666"
     borderopacity="1.0"
     inkscape:pageopacity="0.0"
     inkscape:pageshadow="2"
     inkscape:zoom="2.7946484"
     inkscape:cx="104.60272"
     inkscape:cy="137.20194"
     inkscape:document-units="px"
     inkscape:current-layer="layer1"
     inkscape:window-width="1272"
     inkscape:window-height="949"
     inkscape:window-x="0"
     inkscape:window-y="0" />
  <metadata
     id="metadata7">
    <rdf:RDF>
      <cc:Work
         rdf:about="">
        <dc:format>image/svg+xml</dc:format>
        <dc:type
           rdf:resource="http://purl.org/dc/dcmitype/StillImage" />
      </cc:Work>
    </rdf:RDF>
  </metadata>
  <g
     inkscape:label="Layer 1"
     inkscape:groupmode="layer"
     id="layer1">
    <path
       style="fill:#000000;fill-opacity:1;fill-rule:evenodd;stroke:#000000;stroke-width:0.50080323px;stroke-linecap:butt;stroke-linejoin:miter;stroke-opacity:1"
       d="M 107.22246,55.524278 C 114.34169,63.82642 120.20475,73.182776 126.73041,77.319812 C 130.97538,79.926269 133.03424,79.926269 137.36329,77.740205 C 140.86523,75.176827 140.2473,70.595573 140.38617,66.182483 C 140.41547,63.317965 137.5021,60.033065 135.00904,58.345682 C 124.93144,52.874708 123.17767,54.29824 113.52044,51.517799 C 108.95477,50.07866 103.80056,51.918633 107.22246,55.524278 z "
       id="path1483"
       sodipodi:nodetypes="ccccccc" />
    <path
       sodipodi:nodetypes="ccccccccc"
       id="path1503"
       d="M 62.68156,230.47202 C 69.757618,228.80772 74.978832,226.99145 84.493432,222.91283 C 97.265884,217.10119 104.56677,215.17322 116.87234,211.41462 C 121.40778,209.75716 125.09969,209.63962 128.57341,209.09022 C 135.30342,208.49815 133.10356,210.98329 129.48103,212.23671 C 116.92379,219.35868 106.49753,224.72516 92.273867,236.1791 C 89.376143,238.78299 86.463704,241.58347 84.745628,243.74682 C 83.211063,246.07675 79.39914,249.18137 76.441121,248.674 C 67.718448,248.41456 54.209124,232.75836 62.68156,230.47202 z "
       style="fill:#000000;fill-opacity:1;fill-rule:evenodd;stroke:#000000;stroke-width:0.50080323px;stroke-linecap:butt;stroke-linejoin:miter;stroke-opacity:1" />
    <path
       style="fill:#000000;fill-opacity:1;fill-rule:evenodd;stroke:none;stroke-width:0.2;stroke-linecap:butt;stroke-linejoin:miter;stroke-miterlimit:4;stroke-dasharray:none;stroke-opacity:1"
       d="M 69.41439,88.722298 C 86.296576,87.723846 90.494459,89.01083 105.79869,87.964595 C 160.58904,84.870464 154.72977,85.750964 162.8033,84.158152 C 173.39431,83.983133 172.04642,96.862215 163.43071,96.121494 C 142.06144,96.369557 144.87091,95.742751 124.96406,97.199624 C 115.06515,97.813211 94.710516,99.68961 88.179539,99.878683 C 84.773327,100.65834 81.956966,99.350062 78.869494,98.296782 C 74.859265,96.015811 71.60641,94.810716 67.596182,92.529744 C 65.737021,91.536969 66.810613,89.316775 69.41439,88.722298 z "
       id="path1509"
       sodipodi:nodetypes="ccccccccc" />
    <path
       sodipodi:nodetypes="cccccccc"
       id="path1511"
       d="M 71.471951,124.8773 C 75.630539,123.01757 92.392965,125.80955 103.15526,124.61392 C 134.40819,122.96723 145.02683,123.06597 152.23486,121.3944 C 159.12659,120.20541 155.85745,133.1166 147.23492,132.46005 C 125.86909,132.91675 100.47635,134.19868 93.947528,134.45151 C 90.549073,135.26439 84.99025,135.38208 81.892644,134.359 C 77.860324,132.11731 73.287053,131.81658 70.563551,128.70232 C 68.694775,127.72774 68.874097,125.49717 71.471951,124.8773 z "
       style="fill:#000000;fill-opacity:1;fill-rule:evenodd;stroke:none;stroke-width:0.2;stroke-linecap:butt;stroke-linejoin:miter;stroke-miterlimit:4;stroke-dasharray:none;stroke-opacity:1" />
    <path
       style="fill:#000000;fill-opacity:1;fill-rule:evenodd;stroke:#000000;stroke-width:0.50080323px;stroke-linecap:butt;stroke-linejoin:miter;stroke-opacity:1"
       d="M 162.4807,81.673428 C 165.36909,80.479695 169.35016,82.307238 172.46579,85.170022 C 175.8332,87.961859 172.72736,91.349365 172.45617,95.927083 C 172.37934,105.09512 171.07025,128.13309 170.81641,154.72173 C 171.13528,165.26107 167.08173,177.77799 165.32659,177.94985 C 164.17218,176.95392 161.77959,175.74591 160.07543,163.96991 C 159.54521,152.59741 159.91247,141.58786 160.06643,132.87253 C 159.96299,105.77037 159.87545,117.6517 159.20759,95.649295 C 158.80611,92.813714 158.41607,91.362876 157.61641,88.256525 C 156.4641,84.910181 160.42872,82.162224 162.4807,81.673428 z "
       id="path1515"
       sodipodi:nodetypes="cccccccccc" />
    <path
       sodipodi:nodetypes="ccccccc"
       id="path1519"
       d="M 178.65173,210.75654 C 187.18174,208.4042 195.97666,207.3653 201.35527,203.97059 C 204.79457,201.73211 205.57442,200.1956 205.67814,196.18526 C 205.20347,192.65763 201.75045,191.48503 198.70224,189.80759 C 196.70062,188.76418 193.289,189.76696 191.15908,191.02575 C 183.49779,196.59555 183.83374,198.41203 178.22216,204.6276 C 175.48159,207.52171 174.82213,212.02444 178.65173,210.75654 z "
       style="fill:#000000;fill-opacity:1;fill-rule:evenodd;stroke:#000000;stroke-width:0.40668607px;stroke-linecap:butt;stroke-linejoin:miter;stroke-opacity:1" />
    <path
       sodipodi:nodetypes="ccccccccccc"
       id="path1525"
       d="M 110.99795,2.914303 C 116.33781,6.164571 118.26723,9.9204923 120.4555,14.312443 C 121.59488,16.139671 123.58765,22.539588 118.39826,24.88107 C 114.14166,31.047632 112.48791,34.645834 109.43722,39.41478 C 85.906093,74.307026 62.189423,85.47921 44.522481,92.767578 C 33.866225,96.891778 13.807459,102.98497 5.532136,102.86033 C 1.1366211,102.75194 1.2132721,100.66518 9.288223,97.503598 C 23.561297,91.749588 33.032759,87.9794 44.059449,81.526398 C 66.121616,69.545518 84.12613,52.539591 94.658579,37.134511 C 104.87732,21.423539 104.901,14.124254 104.89925,6.915027 C 103.78305,2.210652 108.47639,0.98368997 110.99795,2.914303 z "
       style="fill:#000000;fill-opacity:1;fill-rule:evenodd;stroke:none;stroke-width:1px;stroke-linecap:butt;stroke-linejoin:miter;stroke-opacity:1" />
    <path
       style="fill:#000000;fill-opacity:1;fill-rule:evenodd;stroke:#000000;stroke-width:0.50080341px;stroke-linecap:butt;stroke-linejoin:miter;stroke-opacity:1"
       d="M 120.13331,19.603209 C 137.8157,28.093624 171.30979,62.170962 193.75697,74.233531 C 214.61004,83.621776 222.93797,87.828383 244.77071,93.824242 C 248.68433,95.37171 244.59464,97.058349 242.78655,98.056209 C 236.44393,101.55135 236.01112,101.13033 221.66529,104.76463 C 215.2076,105.57013 210.72483,105.47582 208.12137,103.96409 C 183.95114,90.27622 128.91734,32.781659 117.98914,26.740936 C 102.16175,18.632241 110.40278,15.715541 120.13331,19.603209 z "
       id="path1527"
       sodipodi:nodetypes="cccccccc" />
    <path
       sodipodi:nodetypes="cccccccccc"
       id="path1531"
       d="M 67.897053,83.719726 C 70.364723,81.98637 80.192163,85.553428 83.600493,88.386137 C 87.281758,91.145445 82.703082,96.245002 81.311696,108.83288 C 79.855273,142.95757 80.888161,186.88198 81.316571,221.49195 C 81.749721,232.02786 76.455602,244.16063 74.550266,244.34937 C 73.28795,243.3646 67.237516,239.48908 65.289201,227.72985 C 65.103315,214.13388 67.381741,171.15097 67.477247,162.43441 C 67.141785,135.33412 68.517409,112.68301 66.275046,101.17056 C 65.815547,98.338938 64.140563,95.522353 62.685278,92.601333 C 60.945043,90.219422 65.693831,86.901734 67.897053,83.719726 z "
       style="fill:#000000;fill-opacity:1;fill-rule:evenodd;stroke:#000000;stroke-width:0.52199614px;stroke-linecap:butt;stroke-linejoin:miter;stroke-opacity:1" />
    <path
       style="fill:#000000;fill-opacity:1;fill-rule:evenodd;stroke:none;stroke-width:0.2;stroke-linecap:butt;stroke-linejoin:miter;stroke-miterlimit:4;stroke-dasharray:none;stroke-opacity:1"
       d="M 81.552216,162.67829 C 85.710804,160.81856 102.47324,163.61054 113.23553,162.4149 C 144.48846,160.76823 155.1071,160.86697 162.31513,159.19539 C 169.20685,158.00641 165.93772,170.91759 157.31519,170.26104 C 135.94936,170.71775 110.55662,171.99968 104.0278,172.25251 C 100.62934,173.06539 95.070515,173.18308 91.972909,172.15999 C 87.940589,169.91829 83.367318,169.61757 80.643816,166.50331 C 78.77504,165.52874 78.954363,163.29816 81.552216,162.67829 z "
       id="path1533"
       sodipodi:nodetypes="cccccccc" />
    <path
       style="fill:#000000;fill-opacity:1;fill-rule:evenodd;stroke:#000000;stroke-width:0.50080341px;stroke-linecap:butt;stroke-linejoin:miter;stroke-opacity:1"
       d="M 107.77011,178.5371 C 118.65336,181.81718 160.05604,212.34915 183.4626,222.42455 C 205.04968,229.97356 211.15372,229.09771 233.42332,233.18229 C 237.45614,234.38539 233.5277,236.41951 231.81272,237.57006 C 225.79625,241.60081 223.15777,241.81763 209.18013,246.6794 C 202.81635,248.04054 198.34222,248.33441 195.61773,247.05356 C 171.83487,234.23776 117.73164,190.33799 108.93952,187.36864 C 85.968191,177.57237 104.08913,177.514 107.77011,178.5371 z "
       id="path1537"
       sodipodi:nodetypes="cccccccc" />
  </g>
</svg>
